<?xml version="1.0" encoding="UTF-8" standalone="no"?>
<!DOCTYPE svg PUBLIC "-//W3C//DTD SVG 1.1//EN" "http://www.w3.org/Graphics/SVG/1.1/DTD/svg11.dtd">
<svg width="100%" height="100%" viewBox="0 0 1429 201" version="1.1" xmlns="http://www.w3.org/2000/svg" xmlns:xlink="http://www.w3.org/1999/xlink" xml:space="preserve" style="fill-rule:evenodd;clip-rule:evenodd;stroke-linejoin:round;stroke-miterlimit:1.41421;">
    <g id="Artboard1" transform="matrix(1,0,0,1,-541,-154.836)">
        <rect x="541" y="154.836" width="1429" height="200.164" style="fill:none;"/>
        <g transform="matrix(4.22925,0,0,4.22925,682.334,-814.763)">
            <path d="M35.95,241.231L30.969,247.127C29.141,244.802 26.442,243.266 24.034,243.266C20.091,243.266 17.1,246.462 17.1,250.739C17.1,255.016 20.091,258.254 24.034,258.254C26.276,258.254 28.975,256.925 30.969,254.891L35.95,260.206C32.795,263.61 28.02,265.811 23.619,265.811C14.776,265.811 8.258,259.417 8.258,250.823C8.258,242.352 14.9,236.083 23.91,236.083C28.311,236.083 33.003,238.076 35.95,241.231" style="fill-rule:nonzero;"/>
        </g>
        <g transform="matrix(4.22925,0,0,4.22925,682.334,-814.763)">
            <path d="M62.563,251.113L62.563,265.437L54.176,265.437L54.176,253.521C54.176,251.279 52.931,249.868 50.938,249.868C48.654,249.909 47.243,251.694 47.243,254.268L47.243,265.437L38.856,265.437L38.856,234.63L47.243,234.63L47.243,246.339C48.821,243.847 51.27,242.518 54.425,242.518C59.283,242.518 62.563,245.882 62.563,251.113" style="fill-rule:nonzero;"/>
        </g>
        <g transform="matrix(4.22925,0,0,4.22925,682.334,-814.763)">
            <path d="M67.005,242.851L75.392,242.851L75.392,265.438L67.005,265.438L67.005,242.851ZM75.558,236.416C75.558,238.948 73.773,240.733 71.241,240.733C68.708,240.733 66.922,238.948 66.922,236.416C66.922,233.883 68.708,232.098 71.241,232.098C73.773,232.098 75.558,233.883 75.558,236.416" style="fill-rule:nonzero;"/>
        </g>
        <g transform="matrix(4.22925,0,0,4.22925,682.334,-814.763)">
            <path d="M100.967,248.456L94.532,251.611C93.743,250.2 92.497,249.369 90.92,249.369C88.678,249.369 87.183,251.321 87.183,254.185C87.183,257.134 88.678,259.085 90.92,259.085C92.539,259.085 93.784,258.296 94.49,256.594L101.009,259.874C99.265,263.61 95.446,265.728 90.463,265.728C83.363,265.728 78.713,261.161 78.713,254.227C78.713,247.211 83.405,242.56 90.546,242.56C95.28,242.56 99.058,244.72 100.967,248.456" style="fill-rule:nonzero;"/>
        </g>
        <g transform="matrix(4.22925,0,0,4.22925,682.334,-814.763)">
            <path d="M116.123,258.006L116.123,255.971L112.303,255.971C110.643,255.971 109.77,256.677 109.77,258.089C109.77,259.5 110.684,260.331 112.303,260.331C114.006,260.331 115.5,259.417 116.123,258.006M124.344,250.781L124.344,265.438L116.123,265.438L116.123,262.946C114.753,264.774 112.511,265.812 109.521,265.812C104.705,265.812 101.882,262.946 101.882,258.711C101.882,254.352 104.913,251.944 110.601,251.86L116.123,251.86L116.123,251.777C116.123,249.909 114.794,248.788 112.22,248.788C110.435,248.788 107.902,249.328 105.411,250.407L103.335,244.844C107.03,243.35 110.684,242.519 114.213,242.519C120.565,242.519 124.344,245.55 124.344,250.781" style="fill-rule:nonzero;"/>
        </g>
        <g transform="matrix(4.22925,0,0,4.22925,682.334,-814.763)">
            <path d="M142.57,253.48C142.57,250.616 141.034,248.748 138.709,248.748C136.425,248.748 134.889,250.657 134.889,253.48C134.889,256.262 136.425,258.13 138.709,258.13C141.034,258.13 142.57,256.262 142.57,253.48M150.875,263.487C150.875,269.839 145.85,273.866 138.46,273.866C134.266,273.866 130.488,272.538 128.039,270.918L130.82,265.272C132.813,266.6 135.429,267.348 137.755,267.348C140.785,267.348 142.57,265.936 142.57,263.736L142.57,261.452C141.117,263.196 139.083,264.151 136.508,264.151C131.028,264.151 127.043,259.832 127.043,253.231C127.043,246.795 130.904,242.56 136.342,242.56C139,242.56 141.117,243.557 142.57,245.301L142.57,242.851L150.875,242.851L150.875,263.487Z" style="fill-rule:nonzero;"/>
        </g>
        <g transform="matrix(4.22925,0,0,4.22925,682.334,-814.763)">
            <path d="M162.166,254.228C162.166,257.258 163.785,259.25 166.276,259.25C168.726,259.25 170.346,257.258 170.346,254.228C170.346,251.238 168.726,249.204 166.276,249.204C163.785,249.204 162.166,251.238 162.166,254.228M178.815,254.145C178.815,261.12 173.874,265.729 166.276,265.729C158.679,265.729 153.696,261.12 153.696,254.145C153.696,247.128 158.679,242.56 166.276,242.56C173.874,242.56 178.815,247.128 178.815,254.145" style="fill-rule:nonzero;"/>
        </g>
        <g transform="matrix(4.22925,0,0,4.22925,682.334,-814.763)">
            <path d="M190.689,242.976L190.689,247.543L204.431,247.543L204.431,254.186L190.689,254.186L190.689,258.794L206.258,258.794L206.258,265.438L182.052,265.438L182.052,236.333L205.843,236.333L205.843,242.976L190.689,242.976Z" style="fill:rgb(139,62,214);fill-rule:nonzero;"/>
        </g>
        <g transform="matrix(4.22925,0,0,4.22925,682.334,-814.763)">
            <rect x="210.701" y="234.63" width="8.387" height="30.808" style="fill:rgb(139,62,214);fill-rule:nonzero;"/>
        </g>
        <g transform="matrix(4.22925,0,0,4.22925,682.334,-814.763)">
            <path d="M224.401,242.851L232.789,242.851L232.789,265.438L224.401,265.438L224.401,242.851ZM232.955,236.416C232.955,238.948 231.17,240.733 228.637,240.733C226.104,240.733 224.318,238.948 224.318,236.416C224.318,233.883 226.104,232.098 228.637,232.098C231.17,232.098 232.955,233.883 232.955,236.416" style="fill:rgb(139,62,214);fill-rule:nonzero;"/>
        </g>
        <g transform="matrix(4.22925,0,0,4.22925,682.334,-814.763)">
            <path d="M251.763,242.851L260.897,242.851L253.839,253.854L261.395,265.438L251.763,265.438L248.275,259.044L244.289,265.438L235.072,265.438L242.628,253.896L235.529,242.851L245.161,242.851L248.275,248.705L251.763,242.851Z" style="fill:rgb(139,62,214);fill-rule:nonzero;"/>
        </g>
        <g transform="matrix(4.22925,0,0,4.22925,682.334,-814.763)">
            <path d="M263.927,242.851L272.315,242.851L272.315,265.438L263.927,265.438L263.927,242.851ZM272.48,236.416C272.48,238.948 270.695,240.733 268.162,240.733C265.63,240.733 263.844,238.948 263.844,236.416C263.844,233.883 265.63,232.098 268.162,232.098C270.695,232.098 272.48,233.883 272.48,236.416" style="fill:rgb(139,62,214);fill-rule:nonzero;"/>
        </g>
        <g transform="matrix(4.22925,0,0,4.22925,682.334,-814.763)">
            <path d="M285.435,246.422C287.012,243.931 289.462,242.519 292.535,242.519L292.535,250.075C288.216,249.536 285.435,251.362 285.435,254.643L285.435,265.438L277.047,265.438L277.047,242.851L285.435,242.851L285.435,246.422Z" style="fill:rgb(139,62,214);fill-rule:nonzero;"/>
        </g>
        <g transform="matrix(0.320699,0,0,0.320699,527.508,176.505)">
            <g transform="matrix(2.03069,0,0,2.03069,-8.51109,-26.4818)">
                <path d="M179.731,70.192C171.958,70.192 164.852,65.318 162.05,58.066C160.226,53.344 160.35,48.194 162.399,43.565C164.448,38.936 168.177,35.382 172.899,33.558C175.093,32.711 177.389,32.281 179.724,32.281C187.499,32.281 194.604,37.154 197.406,44.408C199.23,49.13 199.106,54.279 197.057,58.908C195.008,63.537 191.279,67.09 186.557,68.915C184.363,69.762 182.067,70.192 179.731,70.192" style="fill:rgb(139,62,214);fill-rule:nonzero;"/>
            </g>
            <g transform="matrix(2.03069,0,0,2.03069,-8.51109,-26.4818)">
                <path d="M179.727,28.489L179.726,28.489C176.921,28.489 174.165,29.005 171.534,30.021C165.867,32.21 161.391,36.475 158.932,42.031C156.472,47.586 156.324,53.766 158.513,59.433C161.875,68.137 170.403,73.986 179.733,73.986C182.538,73.986 185.293,73.47 187.925,72.454C199.623,67.934 205.464,54.74 200.946,43.042C197.583,34.337 189.056,28.489 179.727,28.489M179.726,36.075C185.808,36.075 191.546,39.761 193.869,45.775C196.885,53.584 193,62.361 185.192,65.377C183.396,66.071 181.548,66.4 179.733,66.4C173.651,66.4 167.913,62.713 165.589,56.699C162.573,48.89 166.457,40.114 174.267,37.098C176.063,36.404 177.91,36.075 179.726,36.075" style="fill:rgb(2,2,2);fill-rule:nonzero;"/>
            </g>
            <g transform="matrix(2.03069,0,0,2.03069,-8.51109,-26.4818)">
                <path d="M136.452,25.693C132.47,25.693 128.744,27.996 127.023,31.741C125.477,35.109 89.224,114.708 95.913,159.986C100.369,190.161 128.36,214.708 158.305,214.708C163.503,214.708 168.717,213.999 173.808,212.599C188.982,208.426 201.883,197.525 209.205,182.692C216.953,167.005 217.733,148.978 211.35,133.238C205.786,119.513 194.27,111.881 183.14,104.499C174.447,98.738 166.24,93.295 160.558,85.091C146.552,64.867 146.828,36.541 146.833,36.277C146.93,31.363 143.564,27.055 138.772,25.957C137.998,25.779 137.221,25.693 136.452,25.693M136.455,36.083C136.447,36.624 136.092,67.996 152.025,91.001C158.849,100.854 168.283,107.106 177.416,113.158C187.681,119.964 197.375,126.394 201.731,137.138C207.002,150.136 206.334,165.065 199.897,178.097C193.886,190.277 183.373,199.205 171.058,202.59C166.862,203.744 162.571,204.329 158.305,204.329C146.341,204.329 134.298,199.545 124.395,190.859C114.446,182.133 107.977,170.63 106.181,158.469C103.667,141.451 107.842,115.474 118.254,83.347C126.537,57.793 135.987,37.095 136.455,36.083" style="fill-rule:nonzero;"/>
            </g>
            <g transform="matrix(2.03069,0,0,2.03069,-8.51109,-26.4818)">
                <clipPath id="_clip1">
                    <rect x="105.442" y="36.063" width="99.797" height="168.266"/>
                </clipPath>
                <g clip-path="url(#_clip1)">
                    <path d="M201.733,137.127C212.286,163.146 198.135,195.149 171.044,202.589C139.628,211.238 110.288,186.258 106.17,158.475C99.873,115.71 136.444,36.063 136.444,36.063C136.444,36.063 135.822,67.617 152.014,91.006C166.615,112.043 193.533,116.956 201.733,137.127" style="fill:rgb(167,114,232);fill-rule:nonzero;"/>
                </g>
            </g>
            <g transform="matrix(2.03069,0,0,2.03069,-8.51109,-26.4818)">
                <path d="M201.856,102.562C200.524,102.562 199.2,102.355 197.92,101.95C191.088,99.781 187.293,92.459 189.461,85.625C191.183,80.2 196.163,76.554 201.851,76.554C203.183,76.554 204.507,76.76 205.787,77.166C212.619,79.334 216.414,86.656 214.246,93.491C212.524,98.915 207.544,102.562 201.856,102.562" style="fill:rgb(139,62,214);fill-rule:nonzero;"/>
            </g>
            <g transform="matrix(2.03069,0,0,2.03069,-8.51109,-26.4818)">
                <path d="M201.852,73.094L201.851,73.094C194.648,73.094 188.343,77.709 186.164,84.578C184.833,88.769 185.215,93.227 187.239,97.131C189.261,101.035 192.683,103.918 196.874,105.248C198.492,105.761 200.168,106.021 201.856,106.021C209.059,106.021 215.364,101.406 217.543,94.537C220.289,85.886 215.485,76.613 206.833,73.867C205.215,73.354 203.539,73.094 201.852,73.094M201.851,80.013C202.808,80.013 203.78,80.158 204.74,80.463C209.762,82.057 212.542,87.421 210.948,92.444C209.659,96.506 205.903,99.101 201.856,99.101C200.9,99.101 199.928,98.957 198.967,98.652C193.945,97.058 191.165,91.694 192.759,86.672C194.048,82.609 197.805,80.014 201.851,80.013" style="fill:rgb(2,2,2);fill-rule:nonzero;"/>
            </g>
            <g transform="matrix(2.03069,0,0,2.03069,-8.51109,-26.4818)">
                <path d="M126.333,181.179C121.221,175.236 115.557,163.708 116.272,159.335C117.631,156.486 123.986,155.792 124.946,158.711C125.905,161.63 128.297,169.646 134.386,176.108C144.207,186.53 152.082,185.143 154.291,186.175C156.497,187.207 155.579,192.993 152.472,193.441C143.9,194.678 132.573,188.434 126.333,181.179" style="fill:white;fill-rule:nonzero;"/>
            </g>
            <g transform="matrix(2.03069,0,0,2.03069,-8.51109,-26.4818)">
                <path d="M172.674,59.697C170.573,57.851 168.273,53.74 168.309,52.159C168.647,51.085 170.858,50.525 171.342,51.509C171.826,52.492 172.796,55.524 175.268,57.505C179.255,60.7 181.772,59.707 182.603,59.963C183.434,60.218 183.594,62.419 182.519,62.732C179.551,63.594 175.239,61.951 172.674,59.697" style="fill:white;fill-rule:nonzero;"/>
            </g>
            <g transform="matrix(2.03069,0,0,2.03069,-8.51109,-26.4818)">
                <path d="M198.453,94.328C197.152,93.416 195.598,91.239 195.519,90.344C195.643,89.717 196.857,89.263 197.191,89.788C197.526,90.313 198.263,91.965 199.781,92.929C202.231,94.485 203.591,93.768 204.076,93.86C204.561,93.953 204.789,95.185 204.201,95.429C202.579,96.1 200.042,95.44 198.453,94.328" style="fill:white;fill-rule:nonzero;"/>
            </g>
            <g transform="matrix(2.03069,0,0,2.03069,-8.51109,-26.4818)">
                <clipPath id="_clip2">
                    <path d="M106.342,158.47C110.446,186.249 139.788,211.233 171.216,202.591C198.291,195.145 212.445,163.16 201.893,137.138C193.705,116.951 166.766,112.053 152.186,91.001C135.997,67.628 136.616,36.075 136.616,36.075C136.616,36.075 100.026,115.721 106.342,158.47Z"/>
                </clipPath>
                <g clip-path="url(#_clip2)">
                    <path d="M136.456,36.075C136.456,36.075 123.694,75.313 130.113,108.877C142.799,175.215 205.398,204.329 205.398,204.329L213.237,151.11L177.331,98.77L136.456,36.075Z" style="fill:rgb(139,62,214);fill-rule:nonzero;"/>
                </g>
            </g>
        </g>
    </g>
</svg>
